<mxfile host="app.diagrams.net" modified="2024-10-01T17:24:25.128Z" agent="Mozilla/5.0 (Windows NT 10.0; Win64; x64) AppleWebKit/537.36 (KHTML, like Gecko) Chrome/129.0.0.0 Safari/537.36" version="24.2.8" etag="xXAzbB2EiocR1imIifvP" type="github">
  <diagram name="Страница — 1" id="cIYdC2o454u-Clo649um">
    <mxGraphModel>
      <root>
        <mxCell id="0" />
        <mxCell id="1" parent="0" />
      </root>
    </mxGraphModel>
  </diagram>
</mxfile>
